<?xml version="1.0" encoding="utf-8"?>
<!-- Generator: Adobe Illustrator 24.3.0, SVG Export Plug-In . SVG Version: 6.00 Build 0)  -->
<svg version="1.1" id="Layer_1" xmlns="http://www.w3.org/2000/svg" xmlns:xlink="http://www.w3.org/1999/xlink" x="0px" y="0px"
	 viewBox="0 0 92.6 100" style="enable-background:new 0 0 92.6 100;" xml:space="preserve">
<style type="text/css">
	.st0{fill:#FFFFFF;}
</style>
<path class="st0" d="M68.1,54.6h18.9v-8.8H67.9l1.6-2.9L92.6,0h-41v7.5h27.8L62.9,38.2l-1.8,3.3L46.3,14.1L31.5,41.5l-1.8-3.3
	L13.2,7.5H41V0H0l23.1,42.9l1.6,2.9H6v8.8h18.5l-1.3,2.4L0,100h41v-7.5H13.2l16.6-30.7l1.8-3.3l14.8,27.4l14.8-27.4l1.8,3.3
	l16.6,30.7H51.6v7.5h41L69.5,57.1L68.1,54.6z M54.3,45.8H38.3l8-14.8L54.3,45.8z M38.6,54.6H54l-7.7,14.3L38.6,54.6z"/>
</svg>
