<?xml version="1.0" encoding="utf-8"?>
<!-- Generator: Adobe Illustrator 24.3.0, SVG Export Plug-In . SVG Version: 6.00 Build 0)  -->
<svg version="1.1" id="Layer_1" xmlns="http://www.w3.org/2000/svg" xmlns:xlink="http://www.w3.org/1999/xlink" x="0px" y="0px"
	 viewBox="0 0 92.6 100" style="enable-background:new 0 0 92.6 100;" xml:space="preserve">
<style type="text/css">
	.st0{fill:#FFFFFF;}
</style>
<path class="st0" d="M65.6,50l3.8-7.1L92.6,0h-41v7.5h27.8L62.9,38.2l-1.8,3.3L46.3,14.1L31.5,41.5l-1.8-3.3L13.2,7.5H41V0H0
	l23.1,42.9L27,50l-3.8,7.1L0,100h41v-7.5H13.2l16.6-30.7l1.8-3.3l14.8,27.4l14.8-27.4l1.8,3.3l16.6,30.7H51.6v7.5h41L69.5,57.1
	L65.6,50z M46.3,68.9L36.1,50l10.2-18.9L56.5,50L46.3,68.9z"/>
</svg>
