<?xml version="1.0" encoding="utf-8"?>
<!-- Generator: Adobe Illustrator 24.3.0, SVG Export Plug-In . SVG Version: 6.00 Build 0)  -->
<svg version="1.1" id="Layer_1" xmlns="http://www.w3.org/2000/svg" xmlns:xlink="http://www.w3.org/1999/xlink" x="0px" y="0px"
	 viewBox="0 0 71.8 71.8" style="enable-background:new 0 0 71.8 71.8;" xml:space="preserve">
<style type="text/css">
	.st0{fill:#FFFFFF;}
</style>
<path class="st0" d="M56.1,32.7l7-7c0.3-0.3,0.9-0.1,0.9,0.4v37.8c0,4.4-3.6,8-8,8H8c-4.4,0-8-3.6-8-8v-48c0-4.4,3.6-8,8-8h37.8
	c0.4,0,0.7,0.5,0.4,0.9l-7,7c-0.1,0.1-0.2,0.1-0.4,0.1H9c-0.6,0-1,0.4-1,1v46c0,0.6,0.4,1,1,1h46c0.6,0,1-0.4,1-1V33
	C56,32.9,56.1,32.8,56.1,32.7z"/>
<path class="st0" d="M66.4,15.3l-9.9-9.9c-0.4-0.4-0.4-1,0-1.4l1.6-1.6c3.2-3.2,8.4-3.1,11.5,0.2c3,3.2,2.7,8.3-0.4,11.4l-1.4,1.4
	C67.5,15.7,66.8,15.7,66.4,15.3z"/>
<path class="st0" d="M35.4,46.4l-9.9-9.9c-0.4-0.4-0.4-1,0-1.4L52.3,8.2c0.4-0.4,1-0.4,1.4,0l9.9,9.9c0.4,0.4,0.4,1,0,1.4L36.8,46.4
	C36.4,46.8,35.8,46.8,35.4,46.4z"/>
<path class="st0" d="M32.5,49.2c0.4,0.4,0.4,1,0,1.4c-1.8,1.8-3.1,3.2-5.8,3.6l-9.4,1.4c-0.7,0.1-1.2-0.5-1.1-1.1l1.4-9.4
	c0.4-2.7,1.8-4.1,3.6-5.8c0.4-0.4,1-0.4,1.4,0L32.5,49.2z"/>
</svg>
