<?xml version="1.0" encoding="utf-8"?>
<!-- Generator: Adobe Illustrator 24.3.0, SVG Export Plug-In . SVG Version: 6.00 Build 0)  -->
<svg version="1.1" id="Layer_1" xmlns="http://www.w3.org/2000/svg" xmlns:xlink="http://www.w3.org/1999/xlink" x="0px" y="0px"
	 viewBox="0 0 32 19.8" style="enable-background:new 0 0 32 19.8;" xml:space="preserve">
<style type="text/css">
	.st0{fill:#FFFFFF;}
</style>
<g>
	<g>
		<path class="st0" d="M16,18.8c-8.1,0-14.5-8-14.8-8.4c-0.3-0.4-0.3-0.9,0-1.2C1.5,8.9,7.9,0.8,16,0.8c8.1,0,14.5,8,14.8,8.4
			c0.3,0.4,0.3,0.9,0,1.2C30.5,10.8,24.1,18.8,16,18.8z M3.3,9.8c1.6,1.8,6.8,7,12.7,7s11.1-5.2,12.7-7c-1.6-1.8-6.8-7-12.7-7
			C10.1,2.8,4.9,8,3.3,9.8z"/>
	</g>
	<g>
		<path class="st0" d="M16,14.8c-2.8,0-5-2.2-5-5s2.2-5,5-5s5,2.2,5,5S18.8,14.8,16,14.8z M16,6.8c-1.7,0-3,1.3-3,3s1.3,3,3,3
			s3-1.3,3-3S17.7,6.8,16,6.8z"/>
	</g>
</g>
</svg>
