<?xml version="1.0" encoding="utf-8"?>
<!-- Generator: Adobe Illustrator 24.3.0, SVG Export Plug-In . SVG Version: 6.00 Build 0)  -->
<svg version="1.1" id="Layer_1" xmlns="http://www.w3.org/2000/svg" xmlns:xlink="http://www.w3.org/1999/xlink" x="0px" y="0px"
	 viewBox="0 0 100 100" style="enable-background:new 0 0 100 100;" xml:space="preserve">
<style type="text/css">
	.st0{fill:#FFFFFF;}
</style>
<path class="st0" d="M88.2,34.5c-0.9-1.4-1.7-3.6-1.7-4.9c0-1.3-1.1-3.2-2.4-4.3l-13-10.5c-1.3-1.1-3.2-1.9-4.2-1.9S64.1,12,62.8,11
	L58,7.1c-1.3-1-3.8-1.9-5.4-1.9h-0.4c-1.7,0-4.1,0.9-5.3,2l-8,7c-1.3,1.1-3.6,2.3-5.3,2.6L32.7,17c-1.6,0.3-4.2,1.2-5.7,2l-1.2,0.6
	c-1.5,0.8-3.4,2.6-4.2,4.1l-6.8,12.2c-0.8,1.5-1.3,4-1.2,5.7l1.1,11.1c0.2,1.7-0.6,4.1-1.7,5.3l-4.7,5.3c-1.1,1.3-1.1,3.3,0.1,4.4
	l1.2,1.2c1.2,1.2,3.1,1.2,4.3,0l0.3-0.3c1.2-1.2,3.5-2.2,5.2-2.2h3.4c1.7,0,2.6-1.3,2.1-2.9c0,0-6.1-18.7-4.8-22.1S24,24.7,36,23.7
	c12-1,13.4,1.8,13.4,1.8c0.7,1.5,0.2,3.6-1.1,4.6c0,0-1.8,1.4,4.7,4.2c6.5,2.9,6.5,1.5,6.5,1.5c0-1.7,1.3-3.5,2.9-4
	c0,0,0.7-0.2,0.5,1.9c-0.2,2.1-5.1,10.1-10.9,9c-5.7-1.1-9.4-3.5-9.4-3.5c-1.4-0.9-2.6-2.9-2.7-4.5c-0.1-1.6-1.2-2.1-2.6-1.1
	c0,0-2.2,1.5,1,6.3s6.9,14.3,6.9,14.3c0.6,1.6,1.6,1.6,2.2,0l4.2-4.3c1-1.4,2.5-1.3,3.4,0.1l5.6,3c1.3,1,3.5,2.8,4.7,3.8
	c0,0,6,5.1,6,6.2c0,1.1-8,7.6-9.3,8.2s-11.2-0.5-12.8,1.1c-1.6,1.6-16.1,15.7-16.1,15.7c-1.2,1.2-1.2,3.1,0,4.3l1.6,1.6
	c1.2,1.2,3.1,1.2,4.3,0l10.7-10.7c1.2-1.2,3.5-2.3,5.2-2.6l7.4-1c1.7-0.2,4.2-1.2,5.6-2.1l0.6-0.4c1.4-0.9,3.5-2.7,4.7-3.8
	l16.6-16.6c1.2-1.2,2.2-3.5,2.2-5.2v-8.3c0-1.7-0.7-4.2-1.7-5.6L88.2,34.5z M55.7,22.6c-1.2,1.1-3.5,1.5-5.1,0.9l-3.5-2.5
	c-1.5-0.8-1.8-2.6-0.9-4c0,0,4-5.5,5.2-4.8c1.1,0.8,6.9,4.7,7.1,6.1S55.7,22.6,55.7,22.6z M59.5,26.2c-1.3-0.5-1.7-2.1-0.9-3.5
	c0,0,1.9-3.2,4.3-3.2c2.4,0,7.4,4.4,6,6.5c-1.4,2-2.2,5.1-5.8,2.7C59.5,26.2,59.5,26.2,59.5,26.2z M59.4,43.9
	c3.9-3.3,9.7-11.8,9.7-11.8c0.9-1.4,2.5-3.7,3.4-5.1c0,0,0.2-0.4,2.1,1c1.9,1.4,3.1,3.7,3.1,3.7c0.8,1.5,0.8,3.9,0,5.4L66.3,48.5
	c-1.1,1.2-3.3,1.7-4.9,1.1C61.4,49.6,55.5,47.2,59.4,43.9z M76.2,58.5c-1.1,0-7.8-4.7-7-5.6C70,52,80.1,41.4,80.1,41.4
	c1.2-1.2,3.4-1.7,4.9-1.1c0,0,0.7,0.3,0.8,4.7C86,49.5,77.3,58.5,76.2,58.5z"/>
</svg>
