<?xml version="1.0" encoding="utf-8"?>
<!-- Generator: Adobe Illustrator 24.3.0, SVG Export Plug-In . SVG Version: 6.00 Build 0)  -->
<svg version="1.1"
	 id="Layer_1" xmlns:cc="http://creativecommons.org/ns#" xmlns:dc="http://purl.org/dc/elements/1.1/" xmlns:inkscape="http://www.inkscape.org/namespaces/inkscape" xmlns:rdf="http://www.w3.org/1999/02/22-rdf-syntax-ns#" xmlns:sodipodi="http://sodipodi.sourceforge.net/DTD/sodipodi-0.dtd" xmlns:svg="http://www.w3.org/2000/svg"
	 xmlns="http://www.w3.org/2000/svg" xmlns:xlink="http://www.w3.org/1999/xlink" x="0px" y="0px" viewBox="0 0 100 100"
	 style="enable-background:new 0 0 100 100;" xml:space="preserve">
<style type="text/css">
	.st0{fill:#FFFFFF;}
</style>
<path class="st0" d="M67,0c-0.5,0.1-1,0.5-1.1,0.6c0,0.1-0.1,0.1-0.2,0.2L16.1,55.1c-0.2,0.2-0.4,0.5-0.4,0.9c0,0.7,0.5,1.2,1.2,1.2
	h25.3l-10.5,41v0.3c0,0.1-0.1,0.2-0.1,0.3c0,0.7,0.5,1.2,1.2,1.2c0.4,0,0.7-0.2,1-0.4l50.1-57.1c0.2-0.2,0.4-0.5,0.4-0.9
	c0-0.7-0.5-1.2-1.2-1.2H55.9L68,1.9c0.1-0.2,0.1-0.3,0.1-0.5c0-0.7,0-1-0.6-1.2C67.3,0,67.1,0,67,0L67,0z"/>
</svg>
